<?xml version="1.0" encoding="utf-8"?>
<!-- Generator: Adobe Illustrator 25.0.1, SVG Export Plug-In . SVG Version: 6.00 Build 0)  -->
<svg version="1.1" id="Layer_1" xmlns="http://www.w3.org/2000/svg" xmlns:xlink="http://www.w3.org/1999/xlink" x="0px" y="0px"
	 viewBox="0 0 1000 1000" style="enable-background:new 0 0 1000 1000;" xml:space="preserve">
<style type="text/css">
	.st0{fill:#47C541;}
	.st1{fill:#52C94D;}
	.st2{fill:url(#SVGID_1_);}
	.st3{fill:url(#SVGID_2_);}
	.st4{fill:url(#SVGID_3_);}
	.st5{fill:#347C40;}
	.st6{fill:#3C7552;}
	.st7{fill:#275C44;}
	.st8{fill:#39C92E;}
	.st9{fill:#156A12;}
	.st10{fill:url(#SVGID_4_);}
</style>
<g>
	<path d="M78.4-619c-0.1-2.9,3.3-4.7,5.6-2.9c18.1,13.7,70.3,53.7,86.9,63.1c0,0,39.2,26.1,47.9,71v71.2H106.7l5.5-46.4
		c0,0,1.1-7.8-6.1-10.4c0,0-93.1-50.8-121.7-91.2c0,0-9-14.7-18.3-32.4c-7.3-14-12.7-28.9-16-44.3c-3.5-16.3-7.1-36.8-4.9-42.2
		c0,0,8.5-5.1,16.1,21.7c0,0,10.2,48,38.7,72c0,0,54.4,50.4,109.8,65.4c8.5,2.3,17.6,1.3,25.2-3.1c5.9-3.4,9.4-9.8,3.8-17.2
		c-1-1.3-2.3-2.3-3.7-3.1c-5.7-3.1-23.9-13.3-40.4-27.8C94.7-575.5,79.4-591,78.4-619z"/>
	<path d="M-21.6-638.7l-1.1-44l0.2-2.4c0.3-3.8,4.3-6.2,7.6-4.4c0.7,0.4,1.3,0.9,1.8,1.5c5.9,7.2,13.3,29.4,14,45v39.2L-21.6-638.7z
		"/>
	<path d="M13-666.1L12.5-652l0.3,58.7l21.1,17.6L30-640.2c-0.4-6.9-2.5-13.6-6.2-19.4c-1.8-2.9-3.8-5.8-5.8-7.9
		C16.4-669.4,13.4-668.5,13-666.1z"/>
	<path d="M46-628.3l2.8,61l15.2,11l-1.8-36.2c0,0,0-22.3-4.8-31l-7-9c0,0,0,0,0,0c-1.1-1.4-3.4-0.8-3.8,1l-0.4,1.6
		C46-629.5,45.9-628.9,46-628.3z"/>
</g>
<g>
	<path d="M363.2-619c0.1-2.9-3.3-4.7-5.6-2.9c-18.1,13.7-70.3,53.7-86.9,63.1c0,0-39.2,26.1-47.9,71v71.2h112.1l-5.5-46.4
		c0,0-1.1-7.8,6.1-10.4c0,0,93.1-50.8,121.7-91.2c0,0,9-14.7,18.3-32.4c7.3-14,12.7-28.9,16-44.3c3.5-16.3,7.1-36.8,4.9-42.2
		c0,0-8.5-5.1-16.1,21.7c0,0-10.2,48-38.7,72c0,0-54.4,50.4-109.8,65.4c-8.5,2.3-17.6,1.3-25.2-3.1c-5.9-3.4-9.4-9.8-3.8-17.2
		c1-1.3,2.3-2.3,3.7-3.1c5.7-3.1,23.9-13.3,40.4-27.8C346.9-575.5,362.2-591,363.2-619z"/>
	<path d="M463.2-638.7l1.1-44l-0.2-2.4c-0.3-3.8-4.3-6.2-7.6-4.4c-0.7,0.4-1.3,0.9-1.8,1.5c-5.9,7.2-13.3,29.4-14,45v39.2
		L463.2-638.7z"/>
	<path d="M428.6-666.1l0.5,14.1l-0.3,58.7l-21.1,17.6l3.9-64.5c0.4-6.9,2.5-13.6,6.2-19.4c1.8-2.9,3.8-5.8,5.8-7.9
		C425.3-669.4,428.2-668.5,428.6-666.1z"/>
	<path d="M395.7-628.3l-2.8,61l-15.2,11l1.8-36.2c0,0,0-22.3,4.8-31l7-9c0,0,0,0,0,0c1.1-1.4,3.4-0.8,3.8,1l0.4,1.6
		C395.6-629.5,395.7-628.9,395.7-628.3z"/>
</g>
<path id="SVGID_x5F_1_x5F_" style="fill:none;" d="M-2310.6,880.5c0-236.5,199.3-428.2,445-428.2s445,191.7,445,428.2
	s-199.3,428.2-445,428.2S-2310.6,1117-2310.6,880.5z"/>
<text><textPath  xlink:href="#SVGID_x5F_1_x5F_" startOffset="97.4182%">
<tspan  style="font-family:'TimesNewRomanPS-BoldMT'; font-size:77.5772px;">      </tspan><tspan  style="font-family:'TimesNewRomanPS-BoldMT'; font-size:77.5772px; letter-spacing:13.5;">yayasan </tspan><tspan  style="font-family:'TimesNewRomanPS-BoldMT'; font-size:77.5772px; letter-spacing:29.8;">padepokan</tspan></textPath>
</text>
<g>
	<ellipse class="st0" cx="-2330.9" cy="-1413.4" rx="28.2" ry="37.1"/>
	
		<ellipse transform="matrix(0.846 -0.5332 0.5332 0.846 390.5742 -1369.5948)" class="st0" cx="-2175.7" cy="-1361" rx="37.1" ry="47.6"/>
	<path class="st0" d="M-2257.3-1105.9c0,0-51-260.8,53.2-374.3c0,0-47.4,2.5-79.8,88.5c0,0-15.6,58.7-46.7,51.7
		c-4.1-0.9-7.8-3-10.8-5.9c-7.2-6.9-24.4-24.6-31.2-42.7C-2372.5-1388.5-2375.8-1218.2-2257.3-1105.9z"/>
	<path class="st0" d="M-2224.8-1327.7c0,0,33,52.9,84.3,34.7c0,0,55.9-27.5,33.3-187.1c0,0,58.6,136.4,5.3,256.6
		c0,0-67.3,138.5-122.8,136.8c0,0,79.6-58.4,52.9-136.4C-2183.9-1258.1-2224.8-1327.7-2224.8-1327.7z"/>
	<path d="M-1810.6-1289.4c0,221.6-179.6,401.2-401.2,401.2c-215.7,0-391.7-170.2-400.8-383.7c23.6,184.3,181.1,326.8,371.8,326.8
		c207,0,374.9-167.8,374.9-374.9c0-183.9-132.4-336.9-307.2-368.8C-1969.7-1669.3-1810.6-1497.9-1810.6-1289.4z"/>
	<g>
		<path d="M-2446.6-1102.8v-39.2c-0.7-15.7-8.1-37.9-14-45c-0.5-0.6-1.1-1.1-1.8-1.5c-3.3-1.8-7.4,0.7-7.6,4.4l-0.2,2.4l1.1,44
			L-2446.6-1102.8z"/>
		<path d="M-2413.7-1074.8l-3.9-64.5c-0.4-6.9-2.5-13.6-6.2-19.5c-1.8-2.9-3.8-5.8-5.8-7.9c-1.6-1.8-4.6-0.9-5,1.5l-0.5,14.1
			l0.3,58.7L-2413.7-1074.8z"/>
		<path d="M-2383.6-1055.3l-1.8-36.2c0,0,0-22.3-4.8-31l-7-9l0,0c-1.1-1.4-3.3-0.9-3.8,0.8l-0.4,1.7c-0.1,0.6-0.2,1.2-0.2,1.8
			l2.8,61L-2383.6-1055.3z"/>
		<path d="M-1951.2-1182.4c0,0-8.5-5.1-16.1,21.7c0,0-10.2,48-38.7,72c0,0-54.4,50.4-109.8,65.4c-8.5,2.3-17.6,1.3-25.2-3.1
			c-5.9-3.4-9.4-9.8-3.8-17.2c1-1.3,2.3-2.3,3.7-3.1c5.7-3.1,23.9-13.3,40.4-27.8c0,0,15.4-15.5,16.3-43.5c0.1-2.9-3.3-4.7-5.6-2.9
			c-18.1,13.7-70.3,53.7-86.9,63.1c0,0-39.2,26.1-47.9,71v0.3c0,1.1-0.9,2-2,2l0,0c-1.1,0-2-0.9-2-2v-0.3c-8.8-44.9-47.9-71-47.9-71
			c-16.6-9.5-68.8-49.4-86.9-63.1c-2.3-1.8-5.7,0-5.6,2.9c1,28,16.3,43.5,16.3,43.5c16.5,14.5,34.7,24.8,40.4,27.8
			c1.4,0.8,2.7,1.8,3.7,3.1c5.7,7.4,2.2,13.8-3.8,17.2c-7.6,4.4-16.7,5.4-25.2,3.1c-55.4-15-109.8-65.4-109.8-65.4
			c-28.5-24-38.7-72-38.7-72c-7.6-26.8-16.1-21.7-16.1-21.7c-2.3,5.4,1.4,25.8,4.9,42.2c3.3,15.4,8.7,30.4,16,44.3
			c9.3,17.7,18.3,32.4,18.3,32.4c28.6,40.3,121.7,91.2,121.7,91.2c7.2,2.5,6.1,10.4,6.1,10.4l-5.5,46.4h100.5h11.6h4h11.6h100.5
			l-5.5-46.4c0,0-1.1-7.8,6.1-10.4c0,0,93.1-50.8,121.7-91.2c0,0,9-14.7,18.3-32.4c7.3-14,12.7-28.9,16-44.3
			C-1952.6-1156.6-1948.9-1177-1951.2-1182.4z"/>
		<path d="M-1983.2-1181.7l-0.2-2.4c-0.3-3.8-4.3-6.2-7.6-4.4c-0.7,0.4-1.3,0.9-1.8,1.5c-5.9,7.2-13.3,29.4-14,45v39.2l22.5-34.9
			L-1983.2-1181.7z"/>
		<path d="M-2018.5-1151l-0.5-14.1c-0.4-2.4-3.3-3.3-5-1.5c-2,2.1-4,5-5.8,7.9c-3.7,5.9-5.8,12.6-6.2,19.5l-3.9,64.5l21.1-17.6
			L-2018.5-1151z"/>
		<path d="M-2051.9-1127.3c0-0.6,0-1.2-0.2-1.8l-0.4-1.7c-0.4-1.7-2.7-2.2-3.8-0.8l0,0l-7,9c-4.8,8.8-4.8,31-4.8,31l-1.8,36.2
			l15.2-11L-2051.9-1127.3z"/>
	</g>
	<path class="st0" d="M-2227-1496.9c-1.1,3.5,1.3-43.6,36.4-39.1c0,0-4.6,8.9-4.5,17.3c0.1,12.3-9.3,28.7-25.6,30
		c-4.8-9.4,14.2-32.7,10.6-31.4C-2210.2-1520.2-2222.8-1510.5-2227-1496.9z"/>
	<path class="st0" d="M-2238.1-1484.4c3.3,2.2-30.1-35.4-57.9-7c0,0,9.9,4.2,15.4,11.2c8.1,10.2,27.2,17.3,42.4,7
		c-2.1-11.2-34.2-17.2-30.1-18.7C-2268.3-1491.9-2250.8-1492.8-2238.1-1484.4z"/>
	<path class="st0" d="M-2386.4-1409.5c1.3,3.7-4.8-46.2-36.2-38.9c0,0,4.9,9.1,5.5,18c1,13,10.8,29.8,25.6,30
		c3.5-10.3-15.6-33.7-12.2-32.5C-2403.6-1432.9-2391.3-1423.6-2386.4-1409.5z"/>
	<path class="st1" d="M-2622.4-1319.1c3.8,2-37.9-34.6-60.5-3.6c0,0,10.9,3.7,18,10.6c10.3,10.1,31.3,16.2,44.6,4.6
		c-4.4-11.4-38.4-15.7-34.6-17.4C-2654.8-1325-2637.1-1326.9-2622.4-1319.1z"/>
	<path class="st1" d="M-2632.2-1239.8c3.2,2.1-29.2-33.5-54.8-6.6c0,0,9.4,3.9,14.8,10.6c7.9,9.7,26.1,16.4,40.2,6.6
		c-2.2-10.6-32.7-16.4-28.9-17.7C-2660.9-1247-2644.4-1247.8-2632.2-1239.8z"/>
	<path class="st0" d="M-2385.8-1366.7c2.9,2.7-25.7-38.6-50.1-17.6c0,0,8.5,5.8,13.2,13.4c6.9,11.1,23.4,21.4,36.6,14.6
		c-1.7-10.8-29.4-22.6-25.9-23.1C-2411.9-1379.5-2396.7-1376.9-2385.8-1366.7z"/>
	<path class="st0" d="M-2215.5-1456.2c-3.4,2,29.9-30.5,57.3-5c0,0-9.9,3.8-15.8,10.5c-8.5,9.8-25,14-38.6,4.8
		c2.7-10.9,31.1-15.2,27.2-16.7C-2185.4-1462.6-2202.5-1464.1-2215.5-1456.2z"/>
	<path class="st0" d="M-2618.6-1329.5c-1.2,4.2,2.4-47.8,39.8-46.6c0,0-5,10.5-4.9,20.6c0.1,14.6-9.6,30.3-25.8,32.6
		c-5.2-11.2,13.4-35.8,9.4-34.2C-2600.2-1357.2-2614.1-1345.7-2618.6-1329.5z"/>
	<path class="st0" d="M-2596.5-1219c-2.5,3.6,18.1-44.4,53-30.8c0,0-8.2,8.3-11.5,17.8c-4.8,13.8-19.1,25.4-35.2,22.2
		c-1.2-12.3,24.5-29.4,20.2-29.2C-2569.9-1239.1-2586.8-1232.8-2596.5-1219z"/>
	<path class="st0" d="M-2100.3-1526.6c1.2-1.5,1.9-3.3,2.1-5.3c1,0,2-0.1,3-0.2c4.6-0.3,9.1-0.7,13.7-1.4c-4.6-0.6-9.1-0.8-13.7-1
		c-1,0-2-0.1-3-0.1c-0.3-2-1.1-3.8-2.3-5.3c0.7-0.7,1.4-1.5,2-2.3c3-3.4,6-6.9,8.7-10.6c-3.6,2.8-7,5.9-10.4,9
		c-0.7,0.7-1.5,1.4-2.2,2.1c-1.5-1.2-3.3-1.9-5.3-2.1c0-1-0.1-2-0.2-3c-0.3-4.6-0.7-9.1-1.4-13.7c-0.6,4.6-0.8,9.1-1,13.7
		c0,1-0.1,2-0.1,3c-2,0.3-3.8,1.1-5.3,2.3c-0.8-0.7-1.5-1.4-2.2-2c-3.4-3-6.9-6-10.6-8.7c2.8,3.6,5.9,7,9,10.4
		c0.7,0.7,1.4,1.5,2.1,2.2c-1.2,1.5-1.9,3.4-2.1,5.4c-1,0.1-2,0.1-3,0.2c-4.6,0.3-9.1,0.7-13.7,1.4c4.6,0.6,9.1,0.8,13.7,1
		c1,0,2,0,3,0.1c0.3,2,1.1,3.8,2.3,5.3c-0.7,0.8-1.4,1.5-2,2.2c-3,3.4-6,6.9-8.7,10.6c3.6-2.8,7-5.9,10.4-9c0.7-0.7,1.5-1.4,2.2-2.1
		c1.5,1.2,3.4,1.9,5.4,2.1c0.1,1,0.1,2,0.2,3c0.3,4.6,0.7,9.1,1.4,13.7c0.6-4.6,0.8-9.1,1-13.7c0-1,0-2,0.1-3c2-0.3,3.8-1.1,5.3-2.3
		c0.7,0.7,1.5,1.4,2.3,2c3.4,3,6.9,6,10.6,8.7c-2.8-3.6-5.9-7-9-10.4C-2098.9-1525.1-2099.6-1525.8-2100.3-1526.6z"/>
	<polygon class="st0" points="-2224.8,-1675.1 -2209.2,-1643.5 -2174.4,-1638.4 -2199.6,-1613.9 -2193.6,-1579.2 -2224.8,-1595.5 
		-2256,-1579.2 -2250,-1613.9 -2275.2,-1638.4 -2240.4,-1643.5 	"/>
	<g>
		<path d="M-2611.4-1610.3l1.1,0.8c-0.9,1.5-1.3,2.9-1.2,4.1c0.1,1.7,1.1,5,3.2,10.1l8,20.3l9.9,7.4c2.1,1.6,3.5,2.4,4.2,2.6
			c0.7,0.2,1.5,0,2.4-0.4c0.9-0.4,1.8-1.1,2.6-2.3l1.8-2.4l1.1,0.8l-17.8,23.9l-1.1-0.8l1.7-2.2c0.9-1.3,1.5-2.4,1.6-3.5
			c0.1-0.8,0-1.5-0.5-2.4c-0.3-0.6-1.5-1.6-3.6-3.2l-8.2-6.1l-25-3c-4.9-0.6-8-0.7-9.2-0.3c-1.2,0.4-2.3,1.2-3.4,2.6l-1.1-0.8
			l15.2-20.4l1.1,0.8l-0.7,0.9c-0.9,1.2-1.4,2.2-1.4,3c0,0.7,0.2,1.3,0.5,1.5c0.7,0.5,3.2,1.1,7.3,1.6l19.3,2.4l-6.7-16.8
			c-1.6-4.2-2.9-6.6-3.9-7.3c-0.5-0.4-1.2-0.5-2-0.2c-1,0.3-2.3,1.4-3.8,3.3l-1.1-0.8L-2611.4-1610.3z"/>
		<path d="M-2562.5-1609l-12.9,13.6l2.1,5c0.7,1.7,1.5,2.9,2.2,3.6c1,1,2.2,1.3,3.5,0.9c0.8-0.2,2.2-1.3,4.2-3.2l1,1l-12.1,12.8
			l-1-1c1.1-1.6,1.6-3.2,1.6-5c-0.1-1.7-0.9-4.6-2.5-8.6l-16.6-41.7l0.5-0.5l43.6,14.8c4.1,1.4,7,2,8.5,1.9c1.2-0.1,2.4-0.7,3.6-1.8
			l1,1l-17.6,18.7l-1-1l0.7-0.8c1.4-1.5,2.2-2.7,2.4-3.7c0.1-0.7-0.1-1.3-0.7-1.8c-0.3-0.3-0.7-0.6-1.2-0.8
			c-0.2-0.1-1.2-0.5-2.9-1.1L-2562.5-1609z M-2565.4-1609.9l-18.2-6.3l7.2,18L-2565.4-1609.9z"/>
		<path d="M-2529.9-1687.4l0.9,1.1c-1.2,1.3-1.9,2.5-2.1,3.7c-0.3,1.6,0,5.2,0.8,10.6l3.1,21.5l8,9.4c1.7,2,2.9,3.2,3.5,3.5
			c0.6,0.3,1.4,0.4,2.4,0.2c1-0.2,2-0.7,3.1-1.6l2.3-1.9l0.9,1.1l-22.8,19.2l-0.9-1.1l2.1-1.8c1.2-1,2-2,2.3-3
			c0.3-0.7,0.3-1.5,0.1-2.4c-0.2-0.6-1.1-1.9-2.7-3.9l-6.6-7.8l-23.6-8.7c-4.7-1.7-7.7-2.5-8.9-2.4c-1.3,0.1-2.6,0.6-3.9,1.7
			l-0.9-1.1l19.4-16.4l0.9,1.1l-0.9,0.7c-1.2,1-1.9,1.8-2.1,2.6c-0.2,0.7-0.1,1.3,0.2,1.6c0.6,0.7,2.8,1.8,6.8,3.2l18.2,6.7
			l-2.6-17.9c-0.6-4.4-1.3-7.1-2.1-8c-0.4-0.5-1.1-0.7-1.9-0.6c-1.1,0.1-2.6,0.9-4.5,2.3l-0.9-1.1L-2529.9-1687.4z"/>
		<path d="M-2482.7-1674.9l-15.6,10.4l0.9,5.4c0.3,1.8,0.8,3.1,1.4,4c0.8,1.2,1.9,1.7,3.2,1.6c0.8-0.1,2.4-0.8,4.8-2.1l0.8,1.2
			l-14.7,9.8l-0.8-1.2c1.4-1.3,2.3-2.8,2.6-4.5c0.3-1.7,0.2-4.7-0.5-8.9l-6.8-44.4l0.6-0.4l39.1,24.3c3.7,2.3,6.3,3.5,7.9,3.7
			c1.2,0.2,2.5-0.2,3.9-1l0.8,1.2l-21.4,14.2l-0.8-1.2l0.9-0.6c1.7-1.1,2.8-2.2,3.2-3.1c0.3-0.7,0.2-1.3-0.2-1.9
			c-0.2-0.4-0.6-0.7-1-1c-0.2-0.2-1-0.7-2.5-1.7L-2482.7-1674.9z M-2485.3-1676.5l-16.3-10.3l3,19.1L-2485.3-1676.5z"/>
		<path d="M-2444.5-1739.6l8.1,15l-1.4,0.7c-2.6-3.5-5.8-5.7-9.7-6.6c-3.8-1-7.3-0.7-10.3,0.9c-2.4,1.2-3.9,2.8-4.7,4.7
			c-0.8,1.9-0.7,3.7,0.1,5.3c0.5,1,1.2,1.8,2.1,2.3c1.2,0.7,2.8,1.2,4.8,1.5c1.5,0.2,4.7,0.2,9.6,0.1c6.9-0.2,11.9,0.4,15,1.7
			c3.1,1.4,5.4,3.5,6.9,6.5c1.9,3.8,2.1,7.9,0.4,12.2c-1.7,4.3-4.9,7.7-9.6,10.1c-1.5,0.8-3,1.3-4.4,1.7c-1.5,0.4-3.4,0.7-5.8,0.9
			c-1.3,0.1-2.4,0.4-3.1,0.7c-0.6,0.3-1.1,0.9-1.6,1.7c-0.4,0.8-0.6,1.8-0.6,2.9l-1.3,0.7l-8.8-17.2l1.3-0.7c3.5,4.3,7.3,7,11.6,8
			c4.2,1,8,0.7,11.4-1c2.6-1.3,4.3-3.1,5.2-5.2c0.8-2.2,0.8-4.1-0.1-5.9c-0.5-1.1-1.4-2-2.5-2.7c-1.1-0.7-2.5-1.2-4.2-1.5
			c-1.7-0.3-4.4-0.4-8.2-0.3c-5.3,0.2-9.3,0-11.9-0.5c-2.6-0.5-4.9-1.3-6.8-2.6c-1.9-1.2-3.4-2.9-4.5-5.1c-1.9-3.6-2-7.4-0.6-11.4
			c1.5-4,4.3-7,8.5-9.2c1.5-0.8,3.1-1.4,4.7-1.7c1.2-0.3,2.8-0.5,4.8-0.5c1.9-0.1,3.2-0.3,3.8-0.6c0.6-0.3,1-0.7,1.2-1.3
			c0.2-0.5,0.1-1.6-0.3-3.1L-2444.5-1739.6z"/>
		<path d="M-2388.9-1721.8l-17.6,6.6l-0.3,5.4c-0.1,1.8,0,3.2,0.4,4.2c0.5,1.3,1.4,2.1,2.8,2.3c0.8,0.1,2.5-0.2,5.2-1l0.5,1.3
			l-16.5,6.2l-0.5-1.3c1.7-0.9,2.9-2.2,3.6-3.8c0.7-1.6,1.2-4.5,1.5-8.8l3.5-44.8l0.7-0.3l32.6,32.5c3.1,3.1,5.4,4.9,6.8,5.4
			c1.1,0.4,2.4,0.4,4-0.1l0.5,1.3l-24,9l-0.5-1.3l1-0.4c1.9-0.7,3.2-1.5,3.8-2.3c0.4-0.6,0.5-1.2,0.2-1.9c-0.2-0.4-0.4-0.8-0.7-1.2
			c-0.1-0.2-0.8-0.9-2.1-2.2L-2388.9-1721.8z M-2391.1-1723.9l-13.6-13.7l-1.4,19.3L-2391.1-1723.9z"/>
		<path d="M-2353.5-1770.9l32.8,24.8l-5-21.4c-0.7-3-1.6-4.9-2.8-5.7c-1.6-1.1-3.8-1.3-6.6-0.6l-0.3-1.4l17.1-4l0.3,1.4
			c-2.1,0.8-3.5,1.5-4.2,2.1c-0.6,0.6-1.1,1.4-1.3,2.5c-0.2,1.1,0,2.8,0.5,5.1l9.8,41.4l-1.3,0.3l-44.7-33.1l7.5,31.6
			c0.7,2.9,1.8,4.6,3.4,5.3c1.6,0.7,3.3,0.8,5,0.4l1.2-0.3l0.3,1.4l-18.3,4.3l-0.3-1.4c2.8-0.7,4.7-1.7,5.5-3.1c0.9-1.4,1-3.4,0.4-6
			l-8.3-35.1l-1.4-1.1c-1.4-1.1-2.6-1.7-3.5-1.9c-0.9-0.2-2.2-0.2-3.8,0.2l-0.3-1.4L-2353.5-1770.9z"/>
		<path d="M-2264.8-1757.2l1,14.1c0.2,2.8,0.5,4.5,0.9,5.2c0.4,0.7,1.1,1.2,2,1.6c0.9,0.4,2.6,0.5,5,0.3l0.1,1.4l-26.9,1.9l-0.1-1.4
			c2.4-0.2,4.1-0.5,4.9-1c0.8-0.5,1.4-1.1,1.7-1.8c0.3-0.7,0.4-2.5,0.2-5.2l-2.3-33c-0.2-2.8-0.5-4.5-0.9-5.2
			c-0.4-0.7-1.1-1.2-2-1.6c-0.9-0.4-2.6-0.5-5-0.3l-0.1-1.4l23.1-1.6c7.6-0.5,13.1,0.4,16.6,2.7c3.5,2.4,5.4,5.5,5.7,9.4
			c0.2,3.3-0.6,6.2-2.6,8.7c-2,2.5-4.8,4.3-8.5,5.4C-2254.5-1758.3-2258.8-1757.7-2264.8-1757.2z M-2266.5-1782.2l1.6,22
			c0.9,0,1.5,0,2-0.1c3.2-0.2,5.6-1.3,7.1-3.2c1.6-1.9,2.2-4.8,2-8.6c-0.3-3.8-1.3-6.5-3.2-8.1c-1.8-1.6-4.5-2.3-7.9-2.1
			L-2266.5-1782.2z"/>
		<path d="M-2206.8-1749.7l-18.7-0.6l-2.4,4.9c-0.8,1.6-1.2,3-1.2,4.1c0,1.4,0.5,2.5,1.7,3.2c0.7,0.4,2.4,0.8,5.2,1.1l0,1.4
			l-17.6-0.6l0-1.4c1.9-0.2,3.5-0.9,4.8-2.1c1.3-1.2,2.9-3.7,4.8-7.5l20.3-40.1l0.7,0l17.7,42.5c1.7,4,3.1,6.6,4.2,7.6
			c0.9,0.8,2.1,1.3,3.7,1.5l0,1.4l-25.7-0.9l0-1.4l1.1,0c2.1,0.1,3.5-0.2,4.4-0.7c0.6-0.4,0.9-0.9,0.9-1.7c0-0.5,0-0.9-0.2-1.4
			c0-0.2-0.4-1.2-1.1-2.9L-2206.8-1749.7z M-2208-1752.5l-7.3-17.8l-8.7,17.3L-2208-1752.5z"/>
		<path d="M-2180.8-1734.1l0.2-1.4l1.7,0.3c1.5,0.2,2.7,0.2,3.6-0.1c0.9-0.3,1.6-0.9,2.1-1.6c0.3-0.5,0.7-2,1.1-4.6l5.4-33.1
			c0.4-2.6,0.5-4.2,0.4-4.9c-0.2-0.7-0.7-1.3-1.4-2c-0.8-0.6-1.9-1.1-3.4-1.3l-1.7-0.3l0.2-1.4l23.4,3.8c6.3,1,11.2,2.6,14.7,4.9
			c4.3,2.8,7.4,6.4,9.1,10.8c1.7,4.5,2.2,9.2,1.4,14.4c-0.6,3.5-1.7,6.7-3.4,9.5c-1.7,2.8-3.6,5-5.8,6.7c-2.2,1.6-4.6,2.9-7.3,3.6
			c-2.7,0.8-5.8,1.2-9.5,1.3c-1.6,0-4.1-0.2-7.5-0.8L-2180.8-1734.1z M-2153.1-1778.4l-6.4,39.3c-0.3,2.1-0.4,3.4-0.3,3.9
			c0.1,0.5,0.4,0.9,0.9,1.2c0.6,0.5,1.6,0.8,2.9,1c4.3,0.7,7.8-0.2,10.5-2.6c3.7-3.3,6.2-9,7.5-17c1-6.5,0.8-11.8-0.7-16
			c-1.2-3.3-3-5.7-5.5-7.2C-2145.8-1776.8-2148.8-1777.7-2153.1-1778.4z"/>
		<path d="M-2089.3-1764.7l-5.8,19.9l1,0.3c3.2,0.9,5.9,0.7,7.9-0.9c2-1.5,3.8-4.1,5.3-7.8l1.4,0.4l-7.5,25.7l-1.4-0.4
			c0.5-2.9,0.6-5.4,0.1-7.4c-0.4-2.1-1.2-3.6-2.3-4.6c-1.1-1-2.9-1.8-5.3-2.5l-4,13.8c-0.8,2.7-1.2,4.4-1.1,5.1
			c0.1,0.7,0.4,1.3,0.9,1.9c0.5,0.6,1.5,1.1,3,1.5l3,0.9c4.8,1.4,8.9,1.5,12.4,0.2c3.5-1.3,6.5-3.9,9-7.9l1.4,0.4l-6.9,14.9
			l-44-12.9l0.4-1.3l1.7,0.5c1.5,0.4,2.7,0.5,3.8,0.3c0.7-0.1,1.4-0.6,2-1.3c0.4-0.5,1-2,1.7-4.4l9.4-32.2c0.6-2.2,1-3.6,1-4.1
			c0-0.9-0.3-1.7-0.8-2.4c-0.8-1-2-1.7-3.6-2.2l-1.7-0.5l0.4-1.3l42.6,12.5l-4.2,14.5l-1.4-0.4c0.3-3.8,0-6.6-0.8-8.5
			c-0.9-1.9-2.4-3.6-4.6-5c-1.3-0.8-3.8-1.8-7.7-3L-2089.3-1764.7z"/>
		<path d="M-2042.5-1722l-5.5,13c-1.1,2.5-1.6,4.2-1.5,5c0,0.8,0.4,1.6,1.1,2.3c0.7,0.7,2.1,1.6,4.3,2.5l-0.5,1.3l-24.8-10.5
			l0.5-1.3c2.3,1,3.9,1.4,4.9,1.3c1-0.1,1.8-0.3,2.4-0.9c0.6-0.5,1.4-2,2.5-4.6l12.9-30.5c1.1-2.5,1.6-4.2,1.5-5
			c0-0.8-0.4-1.6-1-2.3c-0.7-0.7-2.1-1.6-4.3-2.5l0.5-1.3l21.3,9c7,3,11.5,6.3,13.6,10c2,3.7,2.3,7.3,0.8,11
			c-1.3,3.1-3.4,5.2-6.3,6.6c-2.9,1.3-6.2,1.7-10,1C-2032.9-1718.2-2037-1719.6-2042.5-1722z M-2032.8-1745l-8.6,20.3
			c0.8,0.4,1.4,0.7,1.8,0.8c2.9,1.2,5.5,1.4,7.8,0.4c2.3-1,4.2-3.3,5.7-6.8c1.5-3.5,1.8-6.4,0.9-8.7c-0.9-2.3-2.9-4.1-6.1-5.4
			L-2032.8-1745z"/>
		<path d="M-1972.6-1719.1c7.5,4,12.2,9.5,14.2,16.5c2,7,1.1,13.8-2.7,20.4c-3.3,5.6-7.8,9.5-13.7,11.8c-7.8,3-15.8,2.1-24-2.7
			c-8.3-4.8-13.1-11.2-14.4-19.2c-1.1-6.3,0.1-12.4,3.5-18.2c3.8-6.5,9.3-10.7,16.5-12.3
			C-1986.1-1724.6-1979.2-1723.3-1972.6-1719.1z M-1973.4-1716.8c-4.2-2.4-8.6-2.2-13.2,0.6c-3.8,2.3-7.5,6.7-11.2,13
			c-4.4,7.5-6.2,13.9-5.6,19.1c0.5,3.6,2.4,6.5,5.9,8.5c2.3,1.4,4.6,1.9,6.8,1.8c2.8-0.2,5.6-1.6,8.5-4c2.9-2.4,5.7-6.1,8.6-11
			c3.4-5.8,5.4-10.5,5.9-14.1c0.6-3.6,0.3-6.4-0.7-8.6C-1969.4-1713.7-1971.1-1715.5-1973.4-1716.8z"/>
		<path d="M-1925.1-1662.2l0.7,29.2c0.1,4.1,0.6,7.2,1.3,9.3c0.6,1.5,1.5,2.7,2.7,3.7l-0.9,1.1l-21.7-17.1l0.9-1.1
			c1.5,1,2.5,1.5,3.1,1.5s1.1-0.2,1.5-0.6c0.7-0.8,0.9-3.1,0.9-6.9l-0.4-19.1l-2.5,0l-8.6,10.9c-1.7,2.1-2.6,3.5-2.7,4.2
			c-0.2,0.7,0,1.5,0.4,2.4c0.4,0.9,1.4,2,2.9,3.2l-0.9,1.1l-21-16.6l0.9-1.1l1.4,1.1c1.2,1,2.3,1.5,3.4,1.7c0.7,0.1,1.5,0,2.3-0.4
			c0.6-0.3,1.7-1.4,3.3-3.5l20.8-26.3c1.6-2,2.5-3.4,2.7-4.1c0.2-0.7,0.1-1.5-0.3-2.4c-0.4-0.9-1.2-1.8-2.3-2.8l-1.4-1.1l0.9-1.1
			l20.7,16.4l-0.9,1.1c-1.4-1.1-2.6-1.8-3.7-2c-0.8-0.1-1.5,0-2.4,0.4c-0.6,0.3-1.8,1.5-3.4,3.5l-9.9,12.5l24.9,0.2
			c3.5,0,5.6-0.5,6.4-1.5c0.6-0.7,0.6-1.7,0.1-2.8c-0.3-0.6-1.3-1.6-3-3.1l0.9-1.1l16.2,12.8l-0.9,1.1c-1.5-1.1-2.9-1.7-4-2
			c-1.1-0.3-4.1-0.4-9-0.4L-1925.1-1662.2z"/>
		<path d="M-1887.9-1604.8l-13-13.5l-5.1,1.8c-1.7,0.6-2.9,1.3-3.7,2c-1,1-1.4,2.2-1,3.5c0.2,0.8,1.2,2.2,2.9,4.4l-1,1l-12.2-12.8
			l1-1c1.5,1.2,3.1,1.8,4.9,1.8c1.7,0,4.6-0.7,8.7-2l42.6-14.4l0.5,0.5l-17,42.8c-1.6,4.1-2.4,6.9-2.3,8.4c0.1,1.2,0.6,2.4,1.6,3.7
			l-1,1l-17.7-18.5l1-1l0.7,0.8c1.4,1.5,2.6,2.3,3.6,2.6c0.7,0.1,1.3-0.1,1.8-0.6c0.3-0.3,0.6-0.7,0.8-1.1c0.1-0.2,0.5-1.1,1.2-2.8
			L-1887.9-1604.8z M-1886.8-1607.7l7.2-17.9l-18.3,6.3L-1886.8-1607.7z"/>
		<path d="M-1827.8-1590.2l-10.3,39.8l17.8-12.9c2.5-1.8,3.9-3.4,4.2-4.8c0.4-1.9-0.2-4-2-6.3l1.1-0.8l10.3,14.2l-1.1,0.8
			c-1.5-1.7-2.7-2.7-3.5-3c-0.8-0.4-1.7-0.4-2.8-0.2c-1.1,0.2-2.6,1.1-4.5,2.5l-34.4,25l-0.8-1.1l13.3-54l-26.3,19
			c-2.4,1.7-3.6,3.5-3.6,5.2c0,1.7,0.5,3.3,1.6,4.8l0.7,1l-1.1,0.8l-11.1-15.2l1.1-0.8c1.7,2.4,3.4,3.7,5,3.9c1.6,0.3,3.5-0.4,5.7-2
			l29.2-21.1l0.4-1.7c0.4-1.7,0.6-3,0.4-4s-0.7-2.1-1.6-3.4l1.1-0.8L-1827.8-1590.2z"/>
	</g>
	
		<text transform="matrix(1 0 0 1 -2573.5203 -818.1493)" style="font-family:'TimesNewRomanPS-BoldMT'; font-size:69px; letter-spacing:3;">fatwa kehidupan</text>
</g>
<g>
	<ellipse class="st0" cx="418.6" cy="390" rx="27.3" ry="36.6"/>
	
		<ellipse transform="matrix(0.8651 -0.5016 0.5016 0.8651 -144.9159 344.9501)" class="st0" cx="568.9" cy="441.9" rx="36.2" ry="46.8"/>
	<linearGradient id="SVGID_2_" gradientUnits="userSpaceOnUse" x1="459.9107" y1="324.065" x2="459.9107" y2="694.1685">
		<stop  offset="0.41" style="stop-color:#50BE50"/>
		<stop  offset="0.4143" style="stop-color:#4FBC50"/>
		<stop  offset="0.4993" style="stop-color:#3EA14E"/>
		<stop  offset="0.5913" style="stop-color:#318C4C"/>
		<stop  offset="0.694" style="stop-color:#277D4B"/>
		<stop  offset="0.8151" style="stop-color:#22754A"/>
		<stop  offset="1" style="stop-color:#20724A"/>
	</linearGradient>
	<path class="st3" d="M489.9,694.2c0,0-49.4-257.9,51.6-370.1c0,0-46,2.5-77.3,87.5c0,0-15.1,58.1-45.2,51.1
		c-3.9-0.9-7.5-3-10.4-5.8c-7-6.8-23.6-24.4-30.2-42.3C378.3,414.7,375.1,583,489.9,694.2z"/>
	<linearGradient id="SVGID_3_" gradientUnits="userSpaceOnUse" x1="591.7371" y1="324.065" x2="591.7371" y2="713.1706">
		<stop  offset="0.41" style="stop-color:#50BE50"/>
		<stop  offset="0.4143" style="stop-color:#4FBC50"/>
		<stop  offset="0.4993" style="stop-color:#3EA14E"/>
		<stop  offset="0.5913" style="stop-color:#318C4C"/>
		<stop  offset="0.694" style="stop-color:#277D4B"/>
		<stop  offset="0.8151" style="stop-color:#22754A"/>
		<stop  offset="1" style="stop-color:#20724A"/>
	</linearGradient>
	<path class="st4" d="M521.4,474.8c0,0,32,52.4,81.6,34.3c0,0,54.2-27.2,32.2-185.1c0,0,56.8,134.9,5.1,253.8
		c0,0-65.2,137-119,135.3c0,0,77.1-57.8,51.3-134.9C561,543.6,521.4,474.8,521.4,474.8z"/>
	<linearGradient id="SVGID_4_" gradientUnits="userSpaceOnUse" x1="534.1774" y1="122.1715" x2="534.1774" y2="697.4045">
		<stop  offset="0" style="stop-color:#47AC46"/>
		<stop  offset="0.5732" style="stop-color:#2B7941"/>
		<stop  offset="1" style="stop-color:#19583D"/>
	</linearGradient>
	<path class="st10" d="M922.7,512.7c0,219.1-174,396.7-388.7,396.7c-209,0-379.4-168.3-388.3-379.4
		c18.9,150.9,126.7,273.4,268.1,311.1c29.4,7.8,60.3,12,92.1,12c41.7,0,81.7-7.2,119-20.4C767,782.5,869,644.6,869,482.5
		c0-181.9-128.3-333.1-297.5-364.7C768.5,137,922.7,306.5,922.7,512.7z"/>
	<path class="st5" d="M306.5,697.2v-38.7c-0.7-15.5-7.9-37.4-13.6-44.5c-0.5-0.6-1.1-1.1-1.8-1.5c-3.2-1.8-7.1,0.7-7.4,4.4l-0.2,2.3
		l1.1,43.5L306.5,697.2z"/>
	<path class="st6" d="M338.4,724.9l-3.8-63.7c-0.4-6.8-2.4-13.5-6-19.2c-1.7-2.8-3.7-5.7-5.6-7.8c-1.6-1.8-4.5-0.8-4.8,1.5
		l-0.5,13.9l0.3,58L338.4,724.9z"/>
	<path class="st6" d="M367.5,744.1l-1.8-35.8c0,0,0-22-4.7-30.7l-6.8-8.9l0,0c-1.1-1.4-3.2-0.9-3.6,0.8l-0.4,1.7
		c-0.1,0.6-0.2,1.2-0.2,1.7l2.7,60.3L367.5,744.1z"/>
	<path class="st7" d="M781.7,660.2c-3.2,15.3-8.5,30-15.5,43.9c-9,17.5-17.7,32.1-17.7,32.1c-27.7,39.9-117.9,90.1-117.9,90.1
		c-3.7,1.3-5.2,4.2-5.7,6.5c-37.3,13.2-77.3,20.4-119,20.4c-31.8,0-62.7-4.2-92.1-12l0.5-4.6c0,0,1-7.7-5.9-10.3
		c0,0-90.2-50.3-117.9-90.1c0,0-8.7-14.6-17.7-32.1c-7.1-13.8-12.3-28.6-15.5-43.9c-3.4-16.1-6.9-36.4-4.7-41.7c0,0,8.2-5,15.6,21.5
		c0,0,9.8,47.5,37.5,71.2c0,0,52.7,49.8,106.4,64.7c8.2,2.3,17.1,1.3,24.4-3.1c5.7-3.4,9.2-9.7,3.7-17c-0.9-1.3-2.2-2.3-3.6-3.1
		c-5.5-3-23.1-13.2-39.1-27.5c0,0-14.9-15.3-15.8-43c-0.1-2.9,3.2-4.6,5.4-2.9c17.6,13.6,68.1,53.1,84.2,62.4
		c0,0,37.9,25.8,46.4,70.2v0.3c0,0.5,0.2,1,0.6,1.4c0.3,0.4,0.8,0.6,1.4,0.6c1.1,0,1.9-0.9,1.9-2V812c8.5-44.4,46.4-70.2,46.4-70.2
		c16.1-9.4,66.6-48.9,84.2-62.4c2.3-1.8,5.5,0,5.4,2.9c-0.9,27.6-15.8,43-15.8,43c-16,14.4-33.6,24.5-39.1,27.5
		c-1.4,0.8-2.6,1.8-3.6,3.1c-5.5,7.3-2.1,13.6,3.7,17c7.4,4.4,16.2,5.4,24.5,3.1c53.7-14.9,106.4-64.7,106.4-64.7
		c27.6-23.7,37.5-71.2,37.5-71.2c7.4-26.5,15.6-21.5,15.6-21.5C788.6,623.8,785.1,644,781.7,660.2z"/>
	<g>
		<path class="st5" d="M755.4,619.2l-0.2-2.3c-0.3-3.7-4.2-6.2-7.4-4.4c-0.7,0.4-1.3,0.9-1.8,1.5c-5.7,7.1-12.9,29-13.6,44.5v38.7
			l21.8-34.6L755.4,619.2z"/>
		<path class="st5" d="M721.3,649.5l-0.5-13.9c-0.3-2.4-3.2-3.3-4.8-1.5c-1.9,2.1-3.9,5-5.6,7.8c-3.6,5.8-5.6,12.4-6,19.3l-3.8,63.7
			l20.4-17.4L721.3,649.5z"/>
		<path class="st5" d="M688.9,673c0-0.6,0-1.2-0.2-1.7l-0.4-1.6c-0.4-1.7-2.6-2.2-3.7-0.8l0,0l-6.8,8.9c-4.6,8.7-4.7,30.7-4.7,30.7
			l-1.8,35.8l14.8-10.9L688.9,673z"/>
	</g>
	<path class="st0" d="M519.2,307.5c-1.1,3.5,1.2-43.1,35.3-38.7c0,0-4.4,8.8-4.4,17.1c0.1,12.1-9,28.4-24.8,29.7
		c-4.6-9.3,13.7-32.4,10.3-31C535.5,284.4,523.3,294,519.2,307.5z"/>
	<path class="st0" d="M508.5,319.8c3.2,2.2-29.1-35-56.1-6.9c0,0,9.6,4.1,14.9,11.1c7.8,10.1,26.4,17.1,41.1,6.9
		c-2-11-33.1-17-29.2-18.5C479.2,312.4,496.2,311.5,508.5,319.8z"/>
	<path class="st0" d="M364.8,393.9c1.2,3.6-4.7-45.6-35-38.5c0,0,4.7,9,5.4,17.8c0.9,12.9,10.5,29.5,24.8,29.6
		c3.4-10.2-15.1-33.3-11.8-32.2C348.2,370.7,360.1,380,364.8,393.9z"/>
	<path class="st0" d="M365.5,436.3c2.8,2.6-24.9-38.2-48.5-17.4c0,0,8.3,5.7,12.8,13.2c6.7,10.9,22.7,21.1,35.5,14.5
		c-1.6-10.7-28.5-22.3-25.1-22.9C340.2,423.6,354.9,426.1,365.5,436.3z"/>
	<path class="st0" d="M530.4,347.7c-3.3,2,29-30.1,55.5-4.9c0,0-9.6,3.7-15.3,10.4c-8.3,9.7-24.2,13.8-37.4,4.7
		c2.6-10.8,30.1-15,26.4-16.5C559.5,341.4,542.9,339.9,530.4,347.7z"/>
	<g>
		<path class="st8" d="M136.2,483.3c3.7,2-36.8-34.3-58.6-3.6c0,0,10.6,3.6,17.5,10.5c10,10,30.4,16,43.3,4.5
			c-4.3-11.3-37.2-15.5-33.5-17.2C104.8,477.5,122,475.5,136.2,483.3z"/>
		<path class="st8" d="M126.7,561.7c3.1,2-28.3-33.2-53.1-6.6c0,0,9.1,3.9,14.4,10.5c7.6,9.6,25.3,16.3,38.9,6.5
			c-2.2-10.5-31.6-16.2-28-17.5C98.9,554.6,114.9,553.8,126.7,561.7z"/>
		<path class="st8" d="M139.8,473c-1.2,4.2,2.3-47.3,38.5-46.1c0,0-4.8,10.4-4.8,20.3c0.1,14.4-9.3,30-25,32.2
			c-5-11.1,12.9-35.4,9.1-33.9C157.7,445.6,144.3,457,139.8,473z"/>
		<path class="st8" d="M161.3,582.3c-2.4,3.6,17.5-43.9,51.3-30.5c0,0-7.9,8.2-11.1,17.6c-4.6,13.6-18.5,25.1-34.1,21.9
			c-1.2-12.2,23.7-29,19.6-28.9C187.1,562.4,170.7,568.6,161.3,582.3z"/>
	</g>
	<path class="st0" d="M642,278.1c1.1-1.5,1.9-3.3,2.1-5.3c1,0,2-0.1,2.9-0.2c4.4-0.3,8.8-0.7,13.2-1.4c-4.4-0.5-8.8-0.8-13.3-1
		c-1,0-2-0.1-2.9-0.1c-0.3-2-1-3.8-2.2-5.2c0.7-0.7,1.3-1.5,2-2.2c2.9-3.4,5.8-6.8,8.4-10.5c-3.5,2.8-6.8,5.8-10,8.9
		c-0.7,0.7-1.4,1.4-2.1,2.1c-1.5-1.1-3.2-1.9-5.2-2.1c0-1-0.1-2-0.2-3c-0.3-4.5-0.7-9-1.3-13.5c-0.5,4.5-0.8,9-0.9,13.5
		c0,1-0.1,2-0.1,3c-1.9,0.3-3.7,1.1-5.1,2.3c-0.7-0.7-1.4-1.3-2.2-2c-3.3-3-6.7-5.9-10.3-8.6c2.7,3.6,5.7,7,8.7,10.3
		c0.7,0.7,1.4,1.4,2,2.2c-1.1,1.5-1.9,3.3-2.1,5.3c-1,0.1-2,0.1-2.9,0.2c-4.4,0.3-8.8,0.7-13.2,1.4c4.4,0.6,8.8,0.8,13.3,1
		c1,0,2,0,2.9,0.1c0.3,2,1,3.8,2.2,5.3c-0.7,0.7-1.3,1.5-2,2.2c-2.9,3.4-5.8,6.8-8.4,10.5c3.5-2.8,6.8-5.8,10-8.9
		c0.7-0.7,1.4-1.4,2.1-2.1c1.5,1.1,3.3,1.9,5.2,2.1c0.1,1,0.1,2,0.1,3c0.3,4.5,0.7,9,1.3,13.5c0.5-4.5,0.8-9,0.9-13.5c0-1,0-2,0.1-3
		c1.9-0.3,3.7-1.1,5.1-2.2c0.7,0.7,1.5,1.3,2.2,2c3.3,3,6.7,5.9,10.3,8.6c-2.7-3.6-5.7-7-8.7-10.3
		C643.4,279.6,642.7,278.9,642,278.1z"/>
	<polygon class="st0" points="521.4,131.3 536.5,162.5 570.2,167.5 545.8,191.8 551.6,226.1 521.4,209.9 491.2,226.1 497,191.8 
		472.5,167.5 506.3,162.5 	"/>
	<g>
		<path class="st9" d="M146.9,195.3l1.1,0.8c-0.8,1.5-1.2,2.9-1.2,4.1c0.1,1.7,1.1,5,3.1,10l7.7,20l9.6,7.3c2,1.6,3.4,2.4,4.1,2.6
			c0.7,0.2,1.4,0,2.3-0.4c0.9-0.4,1.7-1.1,2.5-2.3l1.7-2.4l1.1,0.8l-17.2,23.6l-1.1-0.8l1.6-2.2c0.9-1.2,1.4-2.4,1.5-3.4
			c0.1-0.7,0-1.5-0.5-2.3c-0.3-0.6-1.4-1.6-3.4-3.1l-8-6l-24.2-3c-4.8-0.6-7.8-0.7-9-0.3c-1.2,0.4-2.3,1.2-3.3,2.5l-1.1-0.8
			l14.7-20.2l1.1,0.8l-0.7,0.9c-0.9,1.2-1.3,2.2-1.4,2.9c0,0.7,0.2,1.2,0.5,1.5c0.7,0.5,3.1,1,7.1,1.5l18.7,2.4l-6.5-16.7
			c-1.6-4.1-2.8-6.5-3.8-7.2c-0.5-0.4-1.2-0.5-1.9-0.2c-1,0.3-2.2,1.4-3.7,3.2l-1.1-0.8L146.9,195.3z"/>
		<path class="st9" d="M194.3,196.6l-12.5,13.5l2,5c0.7,1.6,1.4,2.8,2.2,3.6c1,1,2.2,1.3,3.4,0.8c0.8-0.2,2.1-1.3,4.1-3.1l1,0.9
			L182.8,230l-1-0.9c1.1-1.6,1.6-3.2,1.5-4.9c-0.1-1.7-0.9-4.6-2.4-8.5l-16.1-41.3l0.5-0.5l42.2,14.6c4,1.4,6.8,2,8.3,1.8
			c1.1-0.1,2.3-0.7,3.5-1.8l1,0.9L203.2,208l-1-0.9l0.7-0.8c1.4-1.5,2.1-2.7,2.3-3.7c0.1-0.7-0.1-1.3-0.6-1.8
			c-0.3-0.3-0.7-0.6-1.1-0.8c-0.2-0.1-1.1-0.5-2.8-1.1L194.3,196.6z M191.4,195.7l-17.7-6.2l7,17.8L191.4,195.7z"/>
		<path class="st9" d="M225.8,119.1l0.9,1.1c-1.2,1.3-1.8,2.5-2.1,3.7c-0.3,1.6,0,5.1,0.8,10.5l3,21.3l7.7,9.3
			c1.6,2,2.8,3.1,3.4,3.4c0.6,0.3,1.4,0.4,2.3,0.2c0.9-0.2,1.9-0.7,3-1.6l2.2-1.9l0.9,1.1l-22.1,19l-0.9-1.1l2.1-1.8
			c1.2-1,1.9-2,2.3-3c0.3-0.7,0.3-1.5,0.1-2.4c-0.2-0.6-1-1.9-2.6-3.9l-6.4-7.7l-22.9-8.6c-4.5-1.7-7.4-2.5-8.6-2.4
			c-1.2,0.1-2.5,0.6-3.8,1.7l-0.9-1.1l18.8-16.2l0.9,1.1l-0.8,0.7c-1.1,1-1.8,1.8-2,2.5c-0.2,0.7-0.1,1.3,0.2,1.6
			c0.6,0.7,2.8,1.7,6.6,3.2l17.7,6.7l-2.5-17.7c-0.6-4.4-1.3-7-2-7.9c-0.4-0.5-1-0.7-1.8-0.6c-1,0.1-2.5,0.8-4.3,2.3l-0.9-1.1
			L225.8,119.1z"/>
		<path class="st9" d="M271.5,131.4l-15.1,10.3l0.9,5.3c0.3,1.8,0.7,3.1,1.3,4c0.8,1.2,1.8,1.7,3.1,1.6c0.8-0.1,2.3-0.8,4.7-2.1
			l0.7,1.1l-14.2,9.7l-0.7-1.1c1.4-1.3,2.2-2.8,2.6-4.4c0.3-1.7,0.2-4.6-0.5-8.8l-6.5-43.9l0.6-0.4l37.9,24c3.6,2.3,6.2,3.5,7.6,3.7
			c1.1,0.2,2.4-0.2,3.8-0.9l0.7,1.1l-20.7,14.1l-0.7-1.1l0.9-0.6c1.7-1.1,2.7-2.1,3.1-3.1c0.2-0.6,0.2-1.3-0.2-1.9
			c-0.2-0.4-0.6-0.7-0.9-1c-0.2-0.2-1-0.7-2.5-1.7L271.5,131.4z M269,129.9l-15.8-10.1l2.9,18.9L269,129.9z"/>
		<path class="st9" d="M308.5,67.5l7.9,14.8L315,83c-2.5-3.4-5.7-5.6-9.4-6.6c-3.7-1-7-0.7-10,0.9c-2.3,1.2-3.8,2.7-4.5,4.7
			c-0.7,1.9-0.7,3.6,0.1,5.2c0.5,1,1.2,1.8,2,2.3c1.2,0.7,2.7,1.2,4.7,1.4c1.4,0.2,4.5,0.2,9.3,0.1c6.7-0.2,11.5,0.3,14.5,1.7
			c3,1.3,5.2,3.5,6.7,6.4c1.9,3.8,2,7.8,0.4,12c-1.6,4.3-4.7,7.6-9.3,10c-1.4,0.8-2.9,1.3-4.3,1.7c-1.4,0.4-3.3,0.7-5.6,0.9
			c-1.3,0.1-2.3,0.4-3,0.7c-0.6,0.3-1.1,0.8-1.5,1.6c-0.4,0.8-0.6,1.7-0.6,2.9l-1.2,0.7l-8.5-17l1.2-0.7c3.4,4.3,7.1,6.9,11.2,7.9
			c4.1,1,7.8,0.7,11-1c2.5-1.3,4.2-3,5-5.2c0.8-2.1,0.8-4.1-0.1-5.9c-0.5-1.1-1.3-1.9-2.4-2.6c-1.1-0.7-2.4-1.2-4-1.5
			c-1.6-0.3-4.3-0.4-8-0.3c-5.2,0.2-9,0-11.6-0.5c-2.5-0.5-4.7-1.3-6.6-2.5c-1.9-1.2-3.3-2.9-4.4-5c-1.8-3.6-2-7.3-0.6-11.2
			c1.4-3.9,4.2-6.9,8.2-9.1c1.5-0.8,3-1.3,4.6-1.7c1.2-0.3,2.7-0.5,4.6-0.5c1.9-0.1,3.1-0.3,3.7-0.6c0.6-0.3,1-0.7,1.1-1.3
			c0.2-0.5,0-1.5-0.3-3L308.5,67.5z"/>
		<path class="st9" d="M362.4,85.1l-17,6.5l-0.3,5.4c-0.1,1.8,0,3.2,0.4,4.2c0.5,1.3,1.4,2.1,2.7,2.3c0.8,0.1,2.5-0.2,5-1l0.5,1.3
			l-16,6.1l-0.5-1.3c1.6-0.9,2.8-2.2,3.5-3.7c0.7-1.6,1.2-4.5,1.5-8.7l3.3-44.3l0.7-0.3l31.6,32.1c3,3,5.2,4.8,6.6,5.4
			c1.1,0.4,2.4,0.4,3.9-0.1l0.5,1.3l-23.3,8.9l-0.5-1.3l1-0.4c1.9-0.7,3.1-1.5,3.7-2.3c0.4-0.6,0.4-1.2,0.2-1.9
			c-0.2-0.4-0.4-0.8-0.7-1.2c-0.1-0.2-0.8-0.9-2-2.2L362.4,85.1z M360.3,83l-13.2-13.5l-1.4,19.1L360.3,83z"/>
		<path class="st9" d="M396.7,36.5L428.4,61l-4.9-21.1c-0.7-2.9-1.6-4.8-2.7-5.7c-1.5-1.1-3.6-1.3-6.4-0.6l-0.3-1.3l16.5-4l0.3,1.3
			c-2.1,0.8-3.4,1.5-4,2.1c-0.6,0.6-1,1.4-1.2,2.5c-0.2,1.1,0,2.7,0.5,5.1l9.5,40.9l-1.3,0.3l-43.3-32.7l7.2,31.2
			c0.7,2.8,1.8,4.6,3.3,5.2c1.5,0.7,3.2,0.8,4.9,0.4l1.2-0.3l0.3,1.3l-17.7,4.3l-0.3-1.3c2.7-0.7,4.5-1.7,5.4-3.1
			c0.8-1.3,0.9-3.3,0.3-5.9l-8-34.7l-1.4-1c-1.4-1-2.5-1.7-3.4-1.9c-0.9-0.2-2.1-0.2-3.7,0.2l-0.3-1.3L396.7,36.5z"/>
		<path class="st9" d="M482.7,50l1,14c0.2,2.7,0.5,4.4,0.9,5.1c0.4,0.7,1,1.2,1.9,1.6c0.9,0.4,2.5,0.5,4.8,0.3l0.1,1.4l-26.1,1.9
			l-0.1-1.4c2.4-0.2,4-0.5,4.8-1c0.8-0.5,1.4-1.1,1.7-1.8c0.3-0.7,0.3-2.4,0.2-5.2l-2.3-32.7c-0.2-2.7-0.5-4.4-0.9-5.1
			c-0.4-0.7-1-1.2-1.9-1.6c-0.9-0.4-2.5-0.5-4.8-0.3l-0.1-1.4l22.3-1.6c7.4-0.5,12.7,0.4,16.1,2.7c3.4,2.3,5.2,5.4,5.5,9.3
			c0.2,3.3-0.6,6.1-2.5,8.6c-1.9,2.5-4.6,4.3-8.2,5.4C492.6,49,488.5,49.6,482.7,50z M480.9,25.4l1.5,21.8c0.8,0,1.5,0,1.9-0.1
			c3.1-0.2,5.4-1.3,6.9-3.2c1.5-1.9,2.2-4.8,1.9-8.5c-0.3-3.7-1.3-6.4-3.1-8c-1.8-1.6-4.3-2.3-7.6-2.1L480.9,25.4z"/>
		<path class="st9" d="M538.8,57.5l-18.1-0.6l-2.3,4.8c-0.8,1.6-1.2,3-1.2,4c0,1.4,0.5,2.5,1.6,3.2c0.7,0.4,2.3,0.8,5,1.1l0,1.4
			l-17.1-0.6l0-1.4c1.9-0.2,3.4-0.9,4.6-2.1c1.2-1.2,2.8-3.7,4.6-7.5l19.7-39.6l0.7,0l17.2,42c1.6,4,3,6.5,4.1,7.6
			c0.8,0.8,2,1.3,3.6,1.5l0,1.4l-24.9-0.8l0-1.4l1,0c2,0.1,3.4-0.2,4.2-0.7c0.6-0.4,0.9-0.9,0.9-1.7c0-0.4,0-0.9-0.2-1.4
			c0-0.2-0.4-1.2-1-2.8L538.8,57.5z M537.6,54.7l-7.1-17.6l-8.5,17.1L537.6,54.7z"/>
		<path class="st9" d="M564,72.9l0.2-1.4l1.7,0.3c1.5,0.2,2.6,0.2,3.5-0.1c0.9-0.3,1.5-0.8,2-1.6c0.3-0.5,0.7-2,1.1-4.6l5.2-32.8
			c0.4-2.5,0.5-4.2,0.3-4.8c-0.2-0.7-0.6-1.3-1.4-1.9c-0.8-0.6-1.9-1-3.3-1.3l-1.7-0.3l0.2-1.4l22.7,3.8c6.1,1,10.8,2.6,14.2,4.8
			c4.2,2.7,7.1,6.3,8.8,10.7c1.7,4.4,2.1,9.1,1.3,14.2c-0.6,3.5-1.6,6.6-3.3,9.4c-1.6,2.8-3.5,5-5.6,6.6c-2.1,1.6-4.5,2.8-7,3.6
			c-2.6,0.8-5.6,1.2-9.2,1.3c-1.6,0-4-0.2-7.3-0.7L564,72.9z M590.8,29.1L584.7,68c-0.3,2.1-0.4,3.3-0.3,3.8
			c0.1,0.5,0.4,0.9,0.8,1.2c0.6,0.5,1.6,0.8,2.8,1c4.2,0.7,7.6-0.2,10.2-2.6c3.6-3.3,6-8.9,7.3-16.8c1-6.4,0.8-11.7-0.6-15.8
			c-1.1-3.3-2.9-5.6-5.3-7.1C597.9,30.7,595,29.8,590.8,29.1z"/>
		<path class="st9" d="M652.7,42.7L647,62.4l1,0.3c3.1,0.9,5.7,0.6,7.6-0.9c2-1.5,3.7-4.1,5.1-7.7l1.4,0.4l-7.3,25.4l-1.4-0.4
			c0.5-2.8,0.5-5.3,0.1-7.3c-0.4-2-1.2-3.6-2.2-4.5c-1.1-1-2.8-1.8-5.1-2.5l-3.9,13.6c-0.8,2.7-1.1,4.3-1.1,5
			c0.1,0.7,0.3,1.3,0.9,1.9c0.5,0.6,1.5,1.1,2.9,1.5l2.9,0.9c4.6,1.4,8.6,1.4,12,0.2c3.4-1.3,6.3-3.9,8.7-7.8l1.3,0.4l-6.6,14.7
			l-42.6-12.8l0.4-1.3l1.6,0.5c1.4,0.4,2.7,0.5,3.7,0.3c0.7-0.1,1.4-0.6,1.9-1.3c0.4-0.5,1-2,1.7-4.4l9.1-31.9c0.6-2.2,1-3.6,1-4.1
			c0-0.9-0.3-1.7-0.8-2.3c-0.7-0.9-1.9-1.7-3.5-2.1l-1.6-0.5l0.4-1.3l41.3,12.3l-4.1,14.3l-1.4-0.4c0.3-3.7,0-6.5-0.8-8.4
			c-0.8-1.9-2.3-3.6-4.4-5c-1.2-0.8-3.7-1.8-7.5-2.9L652.7,42.7z"/>
		<path class="st9" d="M697.9,84.9l-5.4,12.9c-1,2.5-1.5,4.2-1.5,5c0,0.8,0.4,1.5,1,2.3c0.6,0.7,2,1.6,4.2,2.5l-0.5,1.3l-24-10.4
			l0.5-1.3c2.2,0.9,3.8,1.4,4.7,1.3c0.9-0.1,1.7-0.3,2.3-0.8c0.6-0.5,1.4-2,2.4-4.5l12.5-30.2c1-2.5,1.5-4.2,1.5-5
			c0-0.8-0.4-1.5-1-2.3c-0.6-0.7-2-1.6-4.2-2.5l0.5-1.3l20.6,8.9c6.8,2.9,11.2,6.2,13.1,9.9c2,3.7,2.2,7.3,0.7,10.8
			c-1.3,3-3.3,5.2-6.1,6.5c-2.8,1.3-6,1.6-9.7,1C707.2,88.6,703.3,87.2,697.9,84.9z M707.4,62.2L699,82.2c0.7,0.4,1.3,0.7,1.7,0.8
			c2.8,1.2,5.4,1.3,7.6,0.4c2.2-1,4.1-3.2,5.5-6.7c1.4-3.5,1.7-6.3,0.8-8.6c-0.9-2.3-2.8-4.1-5.9-5.4L707.4,62.2z"/>
		<path class="st9" d="M765.7,87.7c7.2,3.9,11.8,9.4,13.8,16.3c2,6.9,1.1,13.6-2.6,20.1c-3.2,5.5-7.6,9.4-13.3,11.7
			c-7.5,3-15.3,2.1-23.3-2.6c-8-4.7-12.7-11.1-14-19c-1.1-6.3,0.1-12.3,3.4-18c3.7-6.5,9-10.5,16-12.2
			C752.6,82.3,759.3,83.5,765.7,87.7z M764.9,90c-4.1-2.4-8.3-2.2-12.8,0.6c-3.6,2.3-7.2,6.6-10.8,12.9c-4.2,7.4-6.1,13.7-5.4,18.9
			c0.4,3.6,2.3,6.4,5.7,8.4c2.2,1.3,4.4,1.9,6.6,1.7c2.7-0.2,5.5-1.5,8.2-3.9c2.8-2.4,5.6-6,8.3-10.8c3.3-5.8,5.2-10.4,5.7-13.9
			c0.5-3.5,0.3-6.4-0.7-8.5C768.7,93.1,767.1,91.3,764.9,90z"/>
		<path class="st9" d="M811.7,144l0.7,28.9c0.1,4.1,0.5,7.1,1.3,9.2c0.6,1.5,1.4,2.7,2.6,3.6l-0.8,1.1l-21-16.9l0.8-1.1
			c1.4,1,2.4,1.4,3,1.5c0.6,0,1.1-0.2,1.4-0.6c0.6-0.8,0.9-3.1,0.8-6.8l-0.4-18.9l-2.4,0l-8.4,10.8c-1.6,2.1-2.5,3.4-2.6,4.1
			c-0.2,0.7,0,1.5,0.4,2.4c0.4,0.9,1.3,2,2.8,3.2l-0.8,1.1l-20.3-16.4l0.8-1.1l1.3,1.1c1.2,0.9,2.3,1.5,3.3,1.7
			c0.7,0.1,1.5,0,2.3-0.4c0.6-0.3,1.6-1.4,3.2-3.4l20.2-26c1.6-2,2.4-3.4,2.6-4.1c0.2-0.7,0.1-1.5-0.3-2.4c-0.4-0.9-1.1-1.8-2.3-2.7
			l-1.3-1.1l0.8-1.1l20.1,16.2l-0.8,1.1c-1.4-1.1-2.6-1.7-3.6-1.9c-0.7-0.1-1.5,0-2.3,0.4c-0.6,0.3-1.7,1.4-3.3,3.4L800,141
			l24.2,0.2c3.4,0,5.4-0.5,6.2-1.5c0.6-0.7,0.6-1.7,0.1-2.8c-0.3-0.6-1.2-1.6-2.9-3l0.8-1.1l15.7,12.7l-0.8,1.1
			c-1.5-1-2.8-1.7-3.9-1.9c-1.1-0.2-4-0.4-8.7-0.4L811.7,144z"/>
		<path class="st9" d="M847.7,200.7l-12.6-13.4l-5,1.8c-1.6,0.6-2.9,1.3-3.6,2c-1,1-1.3,2.1-1,3.4c0.2,0.8,1.1,2.2,2.9,4.3l-1,1
			l-11.8-12.6l1-1c1.5,1.2,3,1.8,4.7,1.8c1.7,0,4.5-0.6,8.4-2l41.2-14.3l0.5,0.5L855,214.7c-1.6,4-2.3,6.8-2.2,8.3
			c0,1.2,0.6,2.4,1.6,3.6l-1,1l-17.2-18.3l1-1l0.7,0.8c1.4,1.5,2.5,2.3,3.5,2.5c0.7,0.1,1.3-0.1,1.8-0.6c0.3-0.3,0.6-0.7,0.8-1.1
			c0.1-0.2,0.5-1.1,1.2-2.8L847.7,200.7z M848.8,197.9l7-17.7l-17.8,6.2L848.8,197.9z"/>
		<path class="st9" d="M905.9,215.2l-9.9,39.3l17.2-12.7c2.4-1.8,3.8-3.3,4.1-4.7c0.4-1.8-0.2-3.9-1.9-6.3l1.1-0.8l10,14l-1.1,0.8
			c-1.5-1.6-2.6-2.6-3.4-3c-0.8-0.4-1.7-0.4-2.7-0.2c-1,0.2-2.5,1-4.4,2.4l-33.3,24.7l-0.8-1.1l12.9-53.4l-25.5,18.8
			c-2.3,1.7-3.5,3.4-3.5,5.1c0,1.7,0.5,3.3,1.5,4.7l0.7,1l-1.1,0.8l-10.7-15.1l1.1-0.8c1.7,2.3,3.3,3.6,4.8,3.9
			c1.5,0.3,3.4-0.4,5.5-2l28.3-20.9l0.4-1.7c0.4-1.7,0.6-3,0.4-3.9c-0.2-0.9-0.7-2.1-1.6-3.4l1.1-0.8L905.9,215.2z"/>
	</g>
	<g>
		<path class="st9" d="M214.9,936.1v18.6h1.3c2,0,3.6-0.3,4.8-0.9c1.2-0.6,2.3-1.6,3.1-3c0.9-1.4,1.4-3.3,1.7-5.8h1.1v22.7h-1.1
			c-0.4-4.3-1.5-7.1-3.4-8.5c-1.8-1.4-3.9-2-6.2-2h-1.3V971c0,2.3,0.1,3.8,0.4,4.3c0.2,0.6,0.7,1.1,1.5,1.5c0.7,0.4,1.7,0.7,3,0.7
			h1.5v1.2H198v-1.2h1.5c1.3,0,2.3-0.2,3.1-0.7c0.6-0.3,1-0.8,1.3-1.6c0.2-0.5,0.4-1.9,0.4-4.2v-29.7c0-2.3-0.1-3.8-0.4-4.3
			c-0.2-0.6-0.7-1.1-1.5-1.5c-0.7-0.4-1.7-0.6-3-0.6H198v-1.2h37.3v13H234c-0.3-3-1.1-5.3-2.3-6.8s-3.1-2.5-5.4-3.1
			c-1.3-0.3-3.7-0.5-7.2-0.5H214.9z"/>
		<path class="st9" d="M263.6,965.8h-15.6l-1.9,4.4c-0.6,1.5-0.9,2.7-0.9,3.6c0,1.3,0.5,2.2,1.5,2.8c0.6,0.4,2,0.6,4.3,0.8v1.2
			h-14.7v-1.2c1.6-0.2,2.9-0.9,3.9-2c1-1.1,2.3-3.4,3.8-6.8l15.8-36h0.6l16,37c1.5,3.5,2.8,5.7,3.8,6.6c0.7,0.7,1.8,1.1,3.1,1.2v1.2
			h-21.4v-1.2h0.9c1.7,0,2.9-0.2,3.6-0.7c0.5-0.4,0.7-0.9,0.7-1.5c0-0.4-0.1-0.8-0.2-1.2c0-0.2-0.4-1-1-2.5L263.6,965.8z
			 M262.5,963.4l-6.6-15.6l-6.8,15.6H262.5z"/>
		<path class="st9" d="M324.6,933.5v12.2h-1.2c-0.7-2.8-1.5-4.8-2.3-6.1s-2-2.2-3.5-2.9c-0.8-0.4-2.3-0.6-4.3-0.6H310V971
			c0,2.3,0.1,3.8,0.4,4.3c0.2,0.6,0.7,1.1,1.5,1.5c0.7,0.4,1.7,0.7,3,0.7h1.5v1.2h-23.2v-1.2h1.5c1.3,0,2.3-0.2,3.1-0.7
			c0.6-0.3,1-0.8,1.3-1.6c0.2-0.5,0.4-1.9,0.4-4.2v-34.8h-3.2c-3,0-5.1,0.6-6.5,1.9c-1.9,1.8-3.1,4.4-3.6,7.7h-1.2v-12.2H324.6z"/>
		<path class="st9" d="M396.6,933.5v1.2c-0.8,0.1-1.5,0.3-2.1,0.7c-0.6,0.4-1.1,1-1.5,1.8c-0.1,0.3-0.8,2-2.1,5.2l-13.9,37.3h-1.3
			l-11-29.1l-12.1,29.1h-1.2L337,942.8c-1.5-3.7-2.5-6-3.1-6.7c-0.6-0.8-1.6-1.2-3-1.4v-1.2h19.2v1.2c-1.5,0-2.6,0.3-3.1,0.7
			c-0.5,0.4-0.8,1-0.8,1.6c0,0.8,0.5,2.6,1.6,5.4l8.7,21.9l7-17.1l-1.8-4.8c-1-2.6-1.8-4.4-2.3-5.2c-0.5-0.9-1.2-1.5-1.9-1.9
			c-0.7-0.4-1.7-0.6-3.1-0.6v-1.2h21.4v1.2c-1.5,0-2.6,0.1-3.2,0.4c-0.5,0.2-0.8,0.4-1.1,0.8c-0.3,0.4-0.4,0.8-0.4,1.2
			c0,0.5,0.5,2.1,1.5,4.7l8.1,21.4l7.2-19.4c0.8-2,1.2-3.4,1.4-4.1c0.2-0.7,0.3-1.4,0.3-2c0-0.9-0.3-1.6-0.9-2.1
			c-0.6-0.5-1.8-0.8-3.5-0.8v-1.2H396.6z"/>
		<path class="st9" d="M420.9,965.8h-15.6l-1.9,4.4c-0.6,1.5-0.9,2.7-0.9,3.6c0,1.3,0.5,2.2,1.5,2.8c0.6,0.4,2,0.6,4.3,0.8v1.2
			h-14.7v-1.2c1.6-0.2,2.9-0.9,3.9-2c1-1.1,2.3-3.4,3.8-6.8l15.8-36h0.6l16,37c1.5,3.5,2.8,5.7,3.8,6.6c0.7,0.7,1.8,1.1,3.1,1.2v1.2
			h-21.4v-1.2h0.9c1.7,0,2.9-0.2,3.6-0.7c0.5-0.4,0.7-0.9,0.7-1.5c0-0.4-0.1-0.8-0.2-1.2c0-0.2-0.4-1-1-2.5L420.9,965.8z
			 M419.8,963.4l-6.6-15.6l-6.8,15.6H419.8z"/>
		<path class="st9" d="M488.9,950.8l15.6,19.9c2.2,2.8,4.1,4.7,5.7,5.7c1.2,0.7,2.4,1.1,3.7,1.1v1.2h-23v-1.2
			c1.5-0.1,2.4-0.4,2.8-0.7c0.4-0.3,0.6-0.7,0.6-1.2c0-0.9-1-2.7-3-5.3l-10.2-13l-1.6,1.4V971c0,2.4,0.1,3.8,0.4,4.4
			c0.3,0.6,0.8,1.1,1.5,1.5c0.7,0.4,1.9,0.6,3.6,0.6v1.2h-22.3v-1.2h1.5c1.3,0,2.3-0.2,3.1-0.7c0.6-0.3,1-0.8,1.3-1.6
			c0.2-0.5,0.4-1.9,0.4-4.2v-29.7c0-2.3-0.1-3.8-0.4-4.3c-0.2-0.6-0.7-1.1-1.5-1.5c-0.7-0.4-1.7-0.6-3-0.6h-1.5v-1.2h22v1.2
			c-1.5,0-2.6,0.2-3.4,0.7c-0.6,0.3-1,0.8-1.3,1.6c-0.3,0.6-0.4,2-0.4,4.3v14.1l16.4-13.6c2.3-1.9,3.4-3.4,3.4-4.5
			c0-0.8-0.5-1.5-1.4-2c-0.5-0.2-1.7-0.4-3.6-0.5v-1.2h17.3v1.2c-1.5,0.1-2.8,0.4-3.6,0.8c-0.9,0.5-2.9,2-6.1,4.6L488.9,950.8z"/>
		<path class="st9" d="M534.6,936.1v18.4h0.9c2.8,0,4.8-0.9,6.1-2.7c1.3-1.8,2.1-4.5,2.4-8h1.2v23.7H544c-0.3-2.6-0.8-4.7-1.6-6.3
			c-0.8-1.6-1.8-2.7-2.9-3.3c-1.1-0.6-2.7-0.8-4.8-0.8v12.7c0,2.5,0.1,4,0.3,4.6c0.2,0.6,0.6,1,1.2,1.4c0.6,0.4,1.5,0.5,2.7,0.5h2.6
			c4.1,0,7.4-1,9.9-2.9c2.5-2,4.3-4.9,5.4-8.9h1.2l-2,14.4h-38.3v-1.2h1.5c1.3,0,2.3-0.2,3.1-0.7c0.6-0.3,1-0.8,1.3-1.6
			c0.2-0.5,0.4-1.9,0.4-4.2v-29.7c0-2-0.1-3.3-0.2-3.8c-0.2-0.8-0.6-1.4-1.2-1.8c-0.8-0.6-2-0.9-3.4-0.9h-1.5v-1.2h37v13.4h-1.2
			c-0.6-3.3-1.5-5.6-2.7-7c-1.1-1.4-2.8-2.5-4.8-3.1c-1.2-0.4-3.5-0.6-6.9-0.6H534.6z"/>
		<path class="st9" d="M582.6,957v14c0,2.3,0.1,3.8,0.4,4.3c0.2,0.6,0.7,1.1,1.5,1.5c0.7,0.4,1.7,0.7,3,0.7h1.5v1.2h-23.1v-1.2h1.5
			c1.3,0,2.3-0.2,3.1-0.7c0.6-0.3,1-0.8,1.3-1.6c0.2-0.5,0.4-1.9,0.4-4.2v-29.7c0-2.3-0.1-3.8-0.4-4.3c-0.2-0.6-0.7-1.1-1.5-1.5
			c-0.7-0.4-1.7-0.6-3-0.6h-1.5v-1.2h23.1v1.2h-1.5c-1.3,0-2.3,0.2-3.1,0.7c-0.6,0.3-1,0.8-1.3,1.6c-0.2,0.5-0.4,1.9-0.4,4.2V954
			h15.6v-12.8c0-2.3-0.1-3.8-0.4-4.3c-0.2-0.6-0.7-1.1-1.5-1.5c-0.7-0.4-1.7-0.6-3-0.6H592v-1.2h23.1v1.2h-1.4
			c-1.3,0-2.3,0.2-3.1,0.7c-0.6,0.3-1,0.8-1.3,1.6c-0.2,0.5-0.4,1.9-0.4,4.2V971c0,2.3,0.1,3.8,0.4,4.3c0.2,0.6,0.7,1.1,1.5,1.5
			c0.7,0.4,1.7,0.7,3,0.7h1.4v1.2H592v-1.2h1.4c1.3,0,2.3-0.2,3.1-0.7c0.6-0.3,1-0.8,1.3-1.6c0.2-0.5,0.4-1.9,0.4-4.2v-14H582.6z"/>
		<path class="st9" d="M644.2,977.5v1.2H621v-1.2h1.5c1.3,0,2.3-0.2,3.1-0.7c0.6-0.3,1-0.8,1.3-1.6c0.2-0.5,0.4-1.9,0.4-4.2v-29.7
			c0-2.3-0.1-3.8-0.4-4.3c-0.2-0.6-0.7-1.1-1.5-1.5c-0.7-0.4-1.7-0.6-3-0.6H621v-1.2h23.1v1.2h-1.5c-1.3,0-2.3,0.2-3.1,0.7
			c-0.6,0.3-1,0.8-1.3,1.6c-0.2,0.5-0.4,1.9-0.4,4.2V971c0,2.3,0.1,3.8,0.4,4.3c0.2,0.6,0.7,1.1,1.5,1.5c0.7,0.4,1.7,0.7,3,0.7
			H644.2z"/>
		<path class="st9" d="M649.9,978.7v-1.2h1.5c1.3,0,2.3-0.2,3-0.6s1.2-1,1.5-1.7c0.2-0.5,0.3-1.9,0.3-4.2v-29.7
			c0-2.3-0.1-3.8-0.4-4.3c-0.2-0.6-0.7-1.1-1.5-1.5c-0.7-0.4-1.7-0.6-3-0.6h-1.5v-1.2h19.8c5.3,0,9.5,0.7,12.8,2.2
			c3.9,1.8,6.9,4.5,9,8.2c2,3.6,3.1,7.8,3.1,12.4c0,3.2-0.5,6.1-1.5,8.8s-2.3,4.9-3.9,6.6c-1.6,1.7-3.4,3.1-5.5,4.2
			c-2.1,1.1-4.6,1.9-7.6,2.4c-1.3,0.3-3.4,0.4-6.3,0.4H649.9z M666.8,936.1v35.2c0,1.9,0.1,3,0.3,3.4c0.2,0.4,0.5,0.7,0.9,1
			c0.6,0.3,1.4,0.5,2.5,0.5c3.6,0,6.4-1.3,8.3-3.8c2.6-3.4,3.9-8.7,3.9-15.9c0-5.8-0.9-10.4-2.7-13.9c-1.4-2.7-3.2-4.6-5.5-5.5
			C673,936.4,670.4,936.1,666.8,936.1z"/>
		<path class="st9" d="M702.2,933.5h22.8v1.2h-1.1c-1.7,0-2.9,0.2-3.5,0.5c-0.6,0.4-1.1,0.9-1.4,1.5c-0.3,0.6-0.4,2.3-0.4,4.8v22.1
			c0,4,0.3,6.7,0.9,8c0.6,1.3,1.6,2.4,3,3.3c1.4,0.9,3.1,1.3,5.2,1.3c2.4,0,4.4-0.5,6.1-1.6c1.7-1.1,2.9-2.6,3.8-4.5
			c0.8-1.9,1.3-5.3,1.3-10.1v-18.4c0-2-0.2-3.5-0.6-4.3s-0.9-1.5-1.6-1.8c-1-0.5-2.4-0.8-4.1-0.8v-1.2h15.3v1.2h-0.9
			c-1.2,0-2.3,0.3-3.1,0.8c-0.8,0.5-1.4,1.3-1.8,2.3c-0.3,0.7-0.4,2-0.4,3.8v17.2c0,5.3-0.3,9.1-1,11.5s-2.4,4.5-5,6.5
			c-2.7,2-6.3,3-10.9,3c-3.8,0-6.8-0.5-8.9-1.6c-2.9-1.4-4.9-3.2-6-5.5c-1.2-2.2-1.8-5.2-1.8-9v-22.1c0-2.6-0.1-4.2-0.4-4.8
			c-0.3-0.6-0.8-1.1-1.5-1.5s-2-0.6-3.9-0.5V933.5z"/>
		<path class="st9" d="M770.3,958.2v12.5c0,2.4,0.1,4,0.4,4.6c0.3,0.6,0.8,1.1,1.6,1.5c0.8,0.4,2.1,0.6,4.1,0.6v1.2H754v-1.2
			c2,0,3.4-0.2,4.2-0.6c0.7-0.4,1.2-0.9,1.5-1.5c0.3-0.6,0.4-2.2,0.4-4.6v-29.3c0-2.4-0.1-4-0.4-4.6s-0.8-1.1-1.6-1.5
			c-0.7-0.4-2.1-0.6-4.1-0.6v-1.2h19.3c6.4,0,10.9,1.2,13.7,3.5c2.8,2.3,4.1,5.2,4.1,8.7c0,2.9-0.9,5.4-2.7,7.5
			c-1.8,2.1-4.2,3.5-7.4,4.3C778.9,958,775.3,958.2,770.3,958.2z M770.3,936.1v19.5c0.7,0,1.3,0.1,1.6,0.1c2.7,0,4.7-0.8,6.1-2.4
			c1.4-1.6,2.2-4.1,2.2-7.5c0-3.4-0.7-5.8-2.2-7.4c-1.4-1.6-3.6-2.3-6.4-2.3H770.3z"/>
		<path class="st9" d="M819.3,965.8h-15.6l-1.9,4.4c-0.6,1.5-0.9,2.7-0.9,3.6c0,1.3,0.5,2.2,1.5,2.8c0.6,0.4,2,0.6,4.3,0.8v1.2H792
			v-1.2c1.6-0.2,2.9-0.9,3.9-2c1-1.1,2.3-3.4,3.8-6.8l15.8-36h0.6l16,37c1.5,3.5,2.8,5.7,3.8,6.6c0.7,0.7,1.8,1.1,3.1,1.2v1.2h-21.4
			v-1.2h0.9c1.7,0,2.9-0.2,3.6-0.7c0.5-0.4,0.7-0.9,0.7-1.5c0-0.4-0.1-0.8-0.2-1.2c0-0.2-0.4-1-1-2.5L819.3,965.8z M818.2,963.4
			l-6.6-15.6l-6.8,15.6H818.2z"/>
		<path class="st9" d="M859.7,933.5l21.8,28v-19.4c0-2.7-0.4-4.5-1.1-5.5c-1-1.3-2.8-1.9-5.3-1.9v-1.2h14.6v1.2
			c-1.9,0.2-3.1,0.6-3.8,0.9c-0.6,0.4-1.1,1-1.5,1.9c-0.4,0.9-0.5,2.4-0.5,4.5v37.6h-1.1l-29.9-37.6v28.7c0,2.6,0.6,4.4,1.7,5.3
			c1.2,0.9,2.5,1.4,4,1.4h1v1.2H844v-1.2c2.4,0,4.1-0.5,5.1-1.5c1-1,1.4-2.7,1.4-5.1v-31.9l-0.9-1.2c-0.9-1.2-1.8-2-2.5-2.4
			c-0.7-0.4-1.8-0.6-3.1-0.6v-1.2H859.7z"/>
	</g>
</g>
<text transform="matrix(0.9796 0 0 1 -2220.0461 997.7947)" style="font-family:'TimesNewRomanPS-BoldMT'; font-size:68.2339px; letter-spacing:3.1;">fatwa kehidupan</text>
<linearGradient id="SVGID_5_" gradientUnits="userSpaceOnUse" x1="-183.783" y1="-348.5237" x2="-47.7598" y2="-348.5237">
	<stop  offset="0" style="stop-color:#47AC46"/>
	<stop  offset="1" style="stop-color:#1C573B"/>
</linearGradient>
<rect x="-183.8" y="-416.5" style="fill:url(#SVGID_5_);" width="136" height="136"/>
</svg>
